<svg width="562" height="254" viewBox="0 0 562 254" fill="none" xmlns="http://www.w3.org/2000/svg">
<path d="M192.656 152.688C192.094 154.188 191.906 155.125 192.094 155.5C192.281 155.875 192.375 156.25 192.375 156.625C191.625 158.312 191.25 159.438 191.25 160C191.25 160.562 191.062 161.219 190.688 161.969C190.688 163.656 190.5 164.594 190.125 164.781C189.938 164.781 189.75 164.969 189.562 165.344C189.938 166.281 190.219 167.031 190.406 167.594C190.781 168.156 190.406 168.812 189.281 169.562C189.656 170.875 189.75 171.812 189.562 172.375C189.188 172.75 188.812 173.219 188.438 173.781C188.062 174.344 187.688 174.906 187.312 175.469C187.312 177.719 186 179.312 183.375 180.25C183 181.375 182.531 182.312 181.969 183.062C181.406 183.625 180.656 184.188 179.719 184.75C179.719 185.688 179.344 186.344 178.594 186.719C178.031 187.094 177.562 187.656 177.188 188.406C175.312 188.969 174.375 189.438 174.375 189.812C174.562 190.188 174.562 190.562 174.375 190.938C173.438 191.5 172.5 191.969 171.562 192.344C170.812 192.719 169.969 193.094 169.031 193.469C166.781 194.594 164.438 195.531 162 196.281C159.75 197.031 158.156 198.062 157.219 199.375C155.906 199.375 155.062 199.469 154.688 199.656C154.312 199.656 154.125 199.844 154.125 200.219C153.75 200.406 153.188 200.5 152.438 200.5C151.688 200.312 151.312 200.594 151.312 201.344C150.188 200.969 149.156 200.969 148.219 201.344C147.281 201.719 146.344 202.094 145.406 202.469C144.281 202.656 143.156 202.656 142.031 202.469C140.906 202.281 139.781 202.375 138.656 202.75C137.719 202.938 136.781 203.406 135.844 204.156C135.094 204.906 134.156 205.375 133.031 205.562C132.281 205.75 131.531 205.656 130.781 205.281C130.031 205.094 129.281 205.375 128.531 206.125C127.031 205.938 125.625 205.938 124.312 206.125C123 206.312 121.875 206.406 120.938 206.406C119.062 205.844 118.125 205.75 118.125 206.125C116.438 205.938 115.219 206.031 114.469 206.406C113.906 206.781 113.156 206.688 112.219 206.125C110.906 206.312 109.969 206.688 109.406 207.25C109.031 207.812 107.906 207.625 106.031 206.688C105.656 206.875 104.812 206.969 103.5 206.969C102.188 207.156 101.344 207.25 100.969 207.25C100.406 207.25 99.8438 207.156 99.2812 206.969C98.7188 206.781 98.1562 206.688 97.5938 206.688L88.0312 206.969C86.7188 207.719 85.9688 208 85.7812 207.812C85.5938 207.625 85.3125 207.438 84.9375 207.25C83.25 207.25 82.2188 207.344 81.8438 207.531C81.4688 207.719 81 207.812 80.4375 207.812C79.5 207.625 78.4688 207.344 77.3438 206.969C76.2188 206.594 75.1875 206.594 74.25 206.969C73.875 206.781 73.4062 206.5 72.8438 206.125C72.4688 205.938 72.0938 205.75 71.7188 205.562C70.9688 205.938 70.2188 206.031 69.4688 205.844C68.9062 205.656 68.1562 205.469 67.2188 205.281C66.2812 205.094 65.4375 205.094 64.6875 205.281C64.125 205.656 63.375 205.75 62.4375 205.562C61.5 205.562 60.6562 205.469 59.9062 205.281C59.1562 205.094 58.3125 205 57.375 205C55.125 204.25 53.625 203.688 52.875 203.312C52.3125 202.938 51.5625 202.75 50.625 202.75C49.6875 202.562 48.75 202.562 47.8125 202.75C47.0625 202.75 46.2188 202.656 45.2812 202.469C43.5938 201.344 42.4688 200.781 41.9062 200.781C41.5312 200.781 41.1562 200.594 40.7812 200.219C40.0312 200.781 39.2812 200.781 38.5312 200.219C37.7812 199.656 36.9375 199.562 36 199.938C35.625 199.562 35.0625 199.281 34.3125 199.094C33.5625 198.719 33 198.719 32.625 199.094C31.5 198.344 30.4688 197.781 29.5312 197.406C28.7812 197.031 27.8438 196.938 26.7188 197.125C25.4062 195.438 24 194.031 22.5 192.906C21.1875 191.594 20.25 190.281 19.6875 188.969C19.125 187.656 19.0312 186.25 19.4062 184.75C19.9688 183.25 21.4688 181.469 23.9062 179.406C24.8438 179.781 25.6875 180.062 26.4375 180.25C27.1875 180.438 28.0312 180.344 28.9688 179.969C30.8438 180.906 31.875 181.281 32.0625 181.094C32.4375 180.719 32.9062 180.625 33.4688 180.812C36.2812 181.562 38.3438 182.406 39.6562 183.344C40.4062 183.344 41.1562 183.438 41.9062 183.625C42.6562 183.625 43.2188 183.906 43.5938 184.469C44.5312 184.094 45.4688 184.188 46.4062 184.75C47.5312 185.312 48.2812 185.406 48.6562 185.031C49.5938 184.656 49.7812 183.906 49.2188 182.781C48.8438 181.469 48.4688 180.531 48.0938 179.969C48.0938 179.406 48.2812 179.031 48.6562 178.844C49.2188 178.469 49.6875 178.094 50.0625 177.719C49.6875 176.969 49.4062 175.844 49.2188 174.344C49.0312 172.656 48.8438 170.875 48.6562 169C48.4688 167.125 48.2812 165.438 48.0938 163.938C47.9062 162.438 47.625 161.5 47.25 161.125C47.25 160.562 47.25 160 47.25 159.438C47.4375 158.875 47.4375 158.312 47.25 157.75C46.875 156.062 46.6875 155.219 46.6875 155.219C46.875 155.031 46.9688 154.75 46.9688 154.375C46.9688 153.812 46.875 153.25 46.6875 152.688C46.5 152.125 46.4062 151.562 46.4062 151C46.5938 148.375 46.125 146.312 45 144.812C45.375 141.625 45.4688 138.906 45.2812 136.656C45.2812 134.219 44.9062 132.25 44.1562 130.75C44.1562 129.625 44.1562 128.5 44.1562 127.375C44.1562 126.25 43.9688 125.125 43.5938 124C43.2188 121.562 43.0312 119.875 43.0312 118.938C43.2188 117.812 43.3125 116.594 43.3125 115.281C43.3125 114.156 43.2188 113.125 43.0312 112.188C43.0312 111.062 42.9375 110.031 42.75 109.094C42.5625 107.969 42.375 107.031 42.1875 106.281C42.1875 105.344 42.0938 104.781 41.9062 104.594C42.2812 103.656 42.5625 102.344 42.75 100.656C42.9375 98.7812 42.5625 97.375 41.625 96.4375C42 95.6875 42 95.0312 41.625 94.4688C41.4375 93.7188 41.25 93.0625 41.0625 92.5C40.875 91.375 40.7812 90.1562 40.7812 88.8438C40.9688 87.5312 40.7812 86.4062 40.2188 85.4688C40.9688 83.2188 41.1562 81.9062 40.7812 81.5312C40.5938 81.1562 40.4062 80.6875 40.2188 80.125C40.2188 79.1875 40.3125 78.3438 40.5 77.5938C40.6875 76.6562 40.4062 75.8125 39.6562 75.0625C40.0312 73.75 40.0312 72.5312 39.6562 71.4062C39.2812 70.0938 38.8125 68.875 38.25 67.75C38.8125 66.25 38.625 64.375 37.6875 62.125C36.9375 59.875 36.4688 58 36.2812 56.5C36.4688 54.625 36.2812 53.2188 35.7188 52.2812C35.3438 51.3437 35.25 50.4063 35.4375 49.4688C35.625 47.7812 35.5312 46.6562 35.1562 46.0938C34.9688 45.3438 35.0625 44.5937 35.4375 43.8438C34.6875 41.5938 34.4062 40.0937 34.5938 39.3438C34.7812 38.5938 34.6875 37.8437 34.3125 37.0938C33.5625 34.8438 33.1875 32.5 33.1875 30.0625C33.1875 27.625 32.4375 26.2188 30.9375 25.8438C30.1875 25.8438 29.5312 26.0312 28.9688 26.4062C28.4062 26.5937 27.75 26.6875 27 26.6875C25.6875 26.5 24.9375 26.5 24.75 26.6875C24.5625 26.875 24.2812 26.9688 23.9062 26.9688C21.8438 26.7813 20.7188 26.9688 20.5312 27.5312C20.5312 28.0938 20.3438 28.375 19.9688 28.375C18.2812 28.375 17.0625 28.5625 16.3125 28.9375C15.5625 29.125 14.4375 29.6875 12.9375 30.625C11.625 30.25 10.3125 30.1563 9 30.3438C7.6875 30.5312 6.375 30.4375 5.0625 30.0625L1.96875 26.4062C1.59375 25.6563 1.40625 25 1.40625 24.4375C1.21875 23.6875 0.84375 23.0312 0.28125 22.4688C0.65625 21.7188 0.9375 21.0625 1.125 20.5C1.3125 19.9375 1.5 19.1875 1.6875 18.25C3.1875 17.3125 4.3125 16.8438 5.0625 16.8438C6.5625 15.7188 7.78125 15.25 8.71875 15.4375C9.46875 15.4375 10.125 14.9688 10.6875 14.0312C11.4375 14.5938 12.1875 14.6875 12.9375 14.3125C13.6875 13.9375 14.5312 13.6562 15.4688 13.4688C17.1562 13.2813 18.1875 13 18.5625 12.625C19.6875 12.4375 20.9062 12.3438 22.2188 12.3438C23.5312 12.3438 24.6562 11.875 25.5938 10.9375C28.0312 10.5625 29.8125 10 30.9375 9.25C32.25 8.5 33.6562 8.125 35.1562 8.125C36.0938 7.9375 37.125 8.03125 38.25 8.40625C39.375 8.59375 40.2188 8.03125 40.7812 6.71875C43.4062 6.34375 45.1875 6.0625 46.125 5.875C47.0625 5.6875 48.0938 5.59375 49.2188 5.59375C52.4062 5.21875 54.5625 4.75 55.6875 4.1875C57 3.625 58.4062 3.4375 59.9062 3.625C60.2812 3.8125 60.6562 3.625 61.0312 3.0625C61.5938 2.3125 62.3438 2.40625 63.2812 3.34375C64.7812 2.78125 65.625 2.59375 65.8125 2.78125C66.1875 2.78125 66.5625 2.78125 66.9375 2.78125C67.6875 2.59375 68.3438 2.40625 68.9062 2.21875C69.4688 1.84375 70.0312 1.65625 70.5938 1.65625C72.2812 1.28125 73.125 1.1875 73.125 1.375C73.3125 1.5625 73.875 1.5625 74.8125 1.375C77.25 0.8125 79.0312 0.8125 80.1562 1.375C81.2812 1.75 82.3125 1.84375 83.25 1.65625C83.8125 1.65625 84.2812 1.5625 84.6562 1.375C85.2188 1 85.7812 0.8125 86.3438 0.8125C87.2812 1 88.2188 1.28125 89.1562 1.65625C90.0938 1.84375 91.0312 1.9375 91.9688 1.9375C92.9062 1.9375 93.9375 1.75 95.0625 1.375C96.375 1 97.5 1.1875 98.4375 1.9375C99 1.5625 99.8438 1.375 100.969 1.375C102.281 1.375 103.594 1.46875 104.906 1.65625C106.406 1.65625 107.812 1.75 109.125 1.9375C110.438 1.9375 111.469 1.9375 112.219 1.9375C113.531 1.9375 114.281 1.84375 114.469 1.65625C114.844 1.28125 115.781 1.28125 117.281 1.65625C118.406 2.03125 119.156 2.40625 119.531 2.78125C120.094 2.96875 121.031 3.0625 122.344 3.0625C122.906 2.875 123.938 3.0625 125.438 3.625C126.938 4 128.156 4 129.094 3.625C131.156 4.75 132.562 5.40625 133.312 5.59375C134.25 5.59375 135.188 5.59375 136.125 5.59375C136.875 5.78125 137.25 6.15625 137.25 6.71875C137.25 7.09375 137.531 7.46875 138.094 7.84375C138.656 8.03125 139.219 8.03125 139.781 7.84375C140.531 7.46875 141.281 7.46875 142.031 7.84375C142.406 8.21875 142.688 8.6875 142.875 9.25C143.25 9.8125 143.719 10.2812 144.281 10.6562C144.844 10.2812 145.406 10.1875 145.969 10.375C146.531 10.5625 147.094 10.6562 147.656 10.6562C148.219 11.5938 148.969 12.25 149.906 12.625C151.031 13 151.875 13.6562 152.438 14.5938C155.062 17.4062 157.875 19.4688 160.875 20.7812C160.875 21.3438 160.969 21.9062 161.156 22.4688C161.531 22.8438 161.719 23.2187 161.719 23.5938C162.844 24.5313 163.5 25.4687 163.688 26.4062C163.875 27.1562 164.625 27.8125 165.938 28.375C166.875 31.1875 167.625 32.875 168.188 33.4375C168.938 34 169.406 34.75 169.594 35.6875C169.969 36.625 169.781 37.4688 169.031 38.2188C168.469 38.9687 168.938 39.9062 170.438 41.0312C169.875 41.9688 169.875 43 170.438 44.125C171 45.25 171.469 46.1875 171.844 46.9375C171.469 48.25 171.469 49.5625 171.844 50.875C172.219 52 172.125 53.125 171.562 54.25C171.562 56.3125 171.469 57.4375 171.281 57.625C171.094 57.625 171 57.7188 171 57.9062C171.188 59.7812 171.094 60.9062 170.719 61.2812C170.531 61.4688 170.625 62.0312 171 62.9688C170.25 64.8438 169.875 65.9688 169.875 66.3438C170.062 66.7188 170.25 67.0938 170.438 67.4688C169.875 68.4062 169.219 69.4375 168.469 70.5625C167.719 71.6875 167.438 72.8125 167.625 73.9375C167.062 74.3125 166.688 74.875 166.5 75.625C166.312 76.1875 166.031 76.75 165.656 77.3125C165.844 78.625 165.469 79.75 164.531 80.6875C163.594 81.4375 162.938 82.1875 162.562 82.9375C161.062 83.3125 160.031 84.1562 159.469 85.4688C158.906 86.7812 157.875 87.625 156.375 88C155.062 88.5625 154.125 89.4062 153.562 90.5312C153 91.4688 152.25 91.9375 151.312 91.9375C150.188 93.8125 149.25 95.0312 148.5 95.5938C147.938 96.1562 147.281 96.7188 146.531 97.2812C148.031 98.7812 149.625 99.4375 151.312 99.25C154.5 100.562 156.656 101.594 157.781 102.344C159.094 103.094 160.594 103.656 162.281 104.031C162.469 104.594 162.75 105.062 163.125 105.438C163.5 105.812 163.875 106.188 164.25 106.562C165.375 106.75 166.219 107.125 166.781 107.688C167.531 108.25 168.375 108.719 169.312 109.094C171 110.406 172.031 111.25 172.406 111.625C172.781 112 173.344 112.281 174.094 112.469C174.094 112.844 174.188 113.219 174.375 113.594C174.75 113.969 175.125 114.438 175.5 115C176.812 116.875 177.844 118 178.594 118.375C178.406 119.125 178.594 120.25 179.156 121.75C179.719 123.062 180.469 123.906 181.406 124.281C181.781 125.219 181.969 125.875 181.969 126.25C181.969 126.625 182.531 127.094 183.656 127.656C184.219 130.094 185.438 131.969 187.312 133.281C187.688 134.594 188.156 135.812 188.719 136.938C189.281 138.062 189.938 139.188 190.688 140.312C190.312 140.688 190.219 141.156 190.406 141.719C190.781 142.281 190.781 142.844 190.406 143.406C190.781 143.594 191.062 144.062 191.25 144.812C191.438 145.562 191.531 146.406 191.531 147.344C191.719 148.094 191.812 148.844 191.812 149.594C192 150.344 192.281 150.719 192.656 150.719V152.688ZM155.531 51.1562C155.719 50.2187 155.625 48.9062 155.25 47.2188C154.875 45.5312 154.5 44.2188 154.125 43.2812C153.938 41.7812 153.469 40.6562 152.719 39.9062C152.156 39.1563 152.062 38.3125 152.438 37.375C151.5 37 150.656 35.875 149.906 34C149.344 33.4375 148.781 32.875 148.219 32.3125C147.844 31.75 147.562 31 147.375 30.0625C147 29.875 146.531 29.5938 145.969 29.2188C145.406 28.8437 144.938 28.5625 144.562 28.375C143.812 27.625 143.062 27.0625 142.312 26.6875C141.562 26.3125 141 25.75 140.625 25C138.938 25 138 24.9062 137.812 24.7188C137.625 24.3437 137.344 23.9688 136.969 23.5938C135.656 23.5938 134.531 23.2187 133.594 22.4688C132.844 21.5312 131.906 20.9687 130.781 20.7812C128.906 20.9687 127.031 20.7812 125.156 20.2188C123.281 19.4688 122.156 19 121.781 18.8125C120.844 18.4375 120 18.3438 119.25 18.5312C118.5 18.7187 117.656 18.8125 116.719 18.8125C116.156 18.625 115.594 18.4375 115.031 18.25C114.656 17.875 114.188 17.6875 113.625 17.6875C111.938 18.625 110.062 18.8125 108 18.25C105.938 17.6875 104.156 17.9688 102.656 19.0938C102.281 18.7187 100.969 18.4375 98.7188 18.25C96.4688 17.875 94.125 17.6875 91.6875 17.6875C89.25 17.5 87 17.4062 84.9375 17.4062C82.875 17.4062 81.75 17.5 81.5625 17.6875C81.1875 17.3125 80.5312 17.0312 79.5938 16.8438C78.8438 16.6563 78.1875 16.8438 77.625 17.4062C76.6875 17.0312 75.8438 17.0312 75.0938 17.4062C74.3438 17.7813 73.5 17.7813 72.5625 17.4062C71.0625 17.5937 69.5625 17.7813 68.0625 17.9688C66.75 17.9688 65.3438 18.1562 63.8438 18.5312C62.3438 18.9063 60.8438 19.375 59.3438 19.9375C57.8438 20.3125 56.7188 20.5938 55.9688 20.7812C54.8438 21.1563 53.4375 21.25 51.75 21.0625C50.0625 20.875 48.8438 21.25 48.0938 22.1875C48.4688 22.9375 48.4688 23.875 48.0938 25C47.9062 26.125 48 26.875 48.375 27.25C48.75 28.1875 48.8438 29.5 48.6562 31.1875C48.6562 32.6875 48.6562 33.9062 48.6562 34.8438C48.6562 37.8437 48.8438 39.7188 49.2188 40.4688C49.7812 41.0312 50.25 41.875 50.625 43C50.25 44.3125 50.25 45.625 50.625 46.9375C51 48.0625 51.4688 49.0937 52.0312 50.0312C51.8438 51.3437 52.0312 52.4687 52.5938 53.4062C53.1562 54.3438 53.25 55.4688 52.875 56.7812C54 57.9062 54.2812 59.125 53.7188 60.4375C54.6562 61.375 55.125 62.5938 55.125 64.0938C55.3125 65.4062 55.3125 66.7188 55.125 68.0312C55.3125 71.2188 55.6875 73.6562 56.25 75.3438C57 77.0312 56.9062 78.625 55.9688 80.125C56.9062 82.375 57.2812 84.8125 57.0938 87.4375C57.0938 89.875 57.6562 92.2188 58.7812 94.4688C58.5938 95.0312 58.6875 96.4375 59.0625 98.6875C59.625 100.75 60.0938 101.969 60.4688 102.344C61.5938 102.344 62.7188 102.344 63.8438 102.344C65.1562 102.344 66.2812 102.156 67.2188 101.781C67.7812 102.344 68.7188 102.438 70.0312 102.062C71.3438 101.5 72.4688 101.125 73.4062 100.938C74.7188 100.562 75.5625 100.469 75.9375 100.656C76.5 100.844 76.9688 100.938 77.3438 100.938C77.9062 100.562 78.6562 100.375 79.5938 100.375C80.7188 100.188 81.6562 100.094 82.4062 100.094C82.7812 99.7188 83.1562 99.4375 83.5312 99.25C84.0938 99.0625 84.5625 98.7812 84.9375 98.4062C85.5 98.4062 85.9688 98.3125 86.3438 98.125C86.9062 97.9375 87.4688 98.0312 88.0312 98.4062C88.4062 97.4688 89.3438 97 90.8438 97C92.5312 96.8125 93.8438 96.7188 94.7812 96.7188C96.2812 95.7812 97.5 95.3125 98.4375 95.3125C99.1875 94.75 100.125 94.4688 101.25 94.4688C102.375 94.4688 103.406 94.1875 104.344 93.625C104.906 93.625 105.375 93.5312 105.75 93.3438C106.312 93.1562 106.875 93.25 107.438 93.625C109.125 92.5 109.969 92.125 109.969 92.5C109.969 92.875 110.156 92.9688 110.531 92.7812C111.469 92.0312 112.219 91.5625 112.781 91.375C113.344 91.1875 114.094 90.8125 115.031 90.25C117.469 90.4375 118.875 90.5312 119.25 90.5312C119.625 90.3438 120.281 90.1562 121.219 89.9688C123.844 89.2188 125.344 88.75 125.719 88.5625C126.281 88.1875 126.75 87.8125 127.125 87.4375C127.688 86.875 128.344 86.5 129.094 86.3125C129.844 85.9375 131.062 85.75 132.75 85.75C133.312 85.375 134.344 84.7188 135.844 83.7812C137.344 82.8438 138.375 82.375 138.938 82.375C139.5 81.4375 140.156 80.7812 140.906 80.4062C141.656 79.8438 142.125 79.0938 142.312 78.1562C143.25 77.7812 143.906 77.2188 144.281 76.4688C144.844 75.7188 145.594 75.1562 146.531 74.7812C146.906 74.4062 147.094 74.0312 147.094 73.6562C147.281 73.0938 147.562 72.625 147.938 72.25C149.438 70.5625 150.375 69.4375 150.75 68.875C151.312 68.3125 151.875 67.6562 152.438 66.9062C151.875 65.9688 151.875 65.125 152.438 64.375C153.188 63.625 153.281 62.7812 152.719 61.8438C153.094 61.4688 153.562 60.5312 154.125 59.0312C154.688 57.5312 154.969 56.5 154.969 55.9375C154.594 54.8125 154.594 53.7813 154.969 52.8438C155.344 51.9062 155.531 51.3437 155.531 51.1562ZM175.781 148.469C174.844 146.781 174.469 145.281 174.656 143.969L172.406 141.438C172.031 140.5 171.562 139.938 171 139.75C170.625 139.375 170.531 138.906 170.719 138.344C169.406 134.969 168.094 132.156 166.781 129.906C165.469 127.656 163.781 125.688 161.719 124C161.719 122.875 161.344 122.125 160.594 121.75C160.031 121.375 159.562 120.719 159.188 119.781C158.625 119.781 158.156 119.688 157.781 119.5C157.406 119.312 156.938 119.312 156.375 119.5C156 118.562 155.344 117.906 154.406 117.531C153.656 116.969 153 116.312 152.438 115.562C150.562 115.938 149.344 115.562 148.781 114.438C146.719 113.688 145.125 113.406 144 113.594C143.062 113.594 142.406 113.219 142.031 112.469C140.156 112.094 138.844 112.094 138.094 112.469C137.719 111.906 136.875 111.438 135.562 111.062C134.438 110.688 133.594 110.594 133.031 110.781C131.156 110.594 130.125 110.5 129.938 110.5C129.75 110.312 129.469 110.125 129.094 109.938C127.781 109.75 126.469 109.75 125.156 109.938C124.031 110.125 122.906 110.031 121.781 109.656C120.469 109.469 119.438 109.281 118.688 109.094C118.125 108.906 117.094 108.906 115.594 109.094C115.219 109.094 114.75 109.094 114.188 109.094C113.625 109.094 113.156 109.188 112.781 109.375C110.906 110.312 109.594 110.688 108.844 110.5C108.094 110.312 107.344 110.312 106.594 110.5C105.469 110.5 104.344 110.688 103.219 111.062C102.281 111.25 101.25 111.438 100.125 111.625C98.0625 112.188 96.6562 112.562 95.9062 112.75C94.7812 113.125 93.9375 113.406 93.375 113.594C93 113.781 92.0625 113.688 90.5625 113.312C89.8125 113.688 89.0625 114.156 88.3125 114.719C87.75 115.094 87 115.375 86.0625 115.562C83.4375 115.375 81.5625 115.656 80.4375 116.406C79.3125 117.156 78.1875 117.812 77.0625 118.375C75.5625 117.438 74.4375 117.156 73.6875 117.531C72.9375 117.719 71.9062 117.906 70.5938 118.094C69.0938 118.281 67.875 118.375 66.9375 118.375C66.1875 118.375 65.0625 118.844 63.5625 119.781L61.875 125.969C61.5 126.344 61.3125 127 61.3125 127.938C61.5 128.875 61.6875 129.906 61.875 131.031C62.0625 131.969 62.1562 132.906 62.1562 133.844C62.3438 134.781 62.25 135.531 61.875 136.094C62.8125 136.844 63.1875 137.5 63 138.062C62.8125 138.625 62.8125 139.375 63 140.312C63.375 142 63.6562 143.875 63.8438 145.938C64.0312 148 64.125 149.219 64.125 149.594C64.6875 151.844 64.9688 153.438 64.9688 154.375C65.1562 155.125 65.1562 155.969 64.9688 156.906C65.7188 159.906 66.0938 162.25 66.0938 163.938C66.0938 165.625 66.1875 167.219 66.375 168.719C67.5 170.969 67.875 172.75 67.5 174.062C67.3125 175.188 67.4062 176.406 67.7812 177.719C68.1562 178.656 68.4375 180.156 68.625 182.219C68.8125 184.094 68.625 185.5 68.0625 186.438C68.8125 186.812 69.1875 187.375 69.1875 188.125C69.1875 188.875 69.375 189.625 69.75 190.375C72.9375 190.938 75.8438 191.312 78.4688 191.5C81.0938 191.5 84.0938 191.312 87.4688 190.938C88.4062 191.5 89.5312 191.781 90.8438 191.781C92.3438 191.781 93.6562 191.594 94.7812 191.219C96.2812 192.156 97.5 192.344 98.4375 191.781C99.5625 191.219 100.875 190.844 102.375 190.656C104.25 190.656 105.375 190.75 105.75 190.938C106.125 191.125 106.5 191.219 106.875 191.219C107.625 191.219 108.656 191.219 109.969 191.219C111.281 191.219 112.219 191.031 112.781 190.656C114.281 190.844 115.219 190.844 115.594 190.656C116.156 190.281 116.625 190.281 117 190.656C117.375 190.844 117.938 190.844 118.688 190.656C119.625 190.469 120.281 190.281 120.656 190.094C123.094 190.094 124.594 190 125.156 189.812C125.906 189.625 126.75 189.719 127.688 190.094C129.75 189.344 131.062 189.062 131.625 189.25C132.375 189.25 133.125 189.156 133.875 188.969C134.25 188.969 135.375 188.688 137.25 188.125C139.125 187.562 140.156 187.188 140.344 187C142.406 186.438 143.812 186.062 144.562 185.875C145.5 185.5 146.344 185.031 147.094 184.469C148.406 184.281 149.438 184 150.188 183.625C150.938 183.625 151.875 183.531 153 183.344C154.125 182.969 154.875 182.781 155.25 182.781C156.375 182.219 157.031 181.844 157.219 181.656C157.594 181.469 157.969 181.375 158.344 181.375C158.906 181 159.375 180.531 159.75 179.969C160.312 179.406 160.875 178.844 161.438 178.281C163.312 177.344 164.344 176.688 164.531 176.312C164.719 175.75 165.094 175.469 165.656 175.469C166.219 172.281 168 170.125 171 169C171.938 167.5 172.688 165.906 173.25 164.219C173.812 162.531 174.469 160.938 175.219 159.438C175.219 157.562 175.312 155.781 175.5 154.094C175.688 152.219 175.781 150.344 175.781 148.469ZM242.719 44.6875C242.344 45.625 242.156 46.6562 242.156 47.7812C242.156 48.7188 241.781 49.4688 241.031 50.0312C241.031 51.7188 240.844 52.5625 240.469 52.5625C240.281 52.5625 240.094 52.75 239.906 53.125C239.906 54.0625 239.719 54.7188 239.344 55.0938C238.969 55.4688 238.594 55.9375 238.219 56.5C236.719 56.5 235.219 56.4062 233.719 56.2188C232.219 55.8438 230.719 55.75 229.219 55.9375C228.094 54.8125 227.344 53.9688 226.969 53.4062C226.594 52.6563 225.938 52.0938 225 51.7188C224.812 50.7812 224.438 49.8438 223.875 48.9062C223.312 47.9687 222.844 47.0313 222.469 46.0938C223.031 45.7187 223.312 45.1562 223.312 44.4062C223.312 43.6563 223.781 43.0938 224.719 42.7188C226.219 41.2187 227.531 40.4688 228.656 40.4688C229.969 40.2813 231.094 39.7188 232.031 38.7812C232.969 39.1563 233.625 39.1563 234 38.7812C234.562 38.2188 235.031 38.0313 235.406 38.2188C236.344 38.4062 236.812 38.6875 236.812 39.0625C237 39.25 237.562 39.1563 238.5 38.7812C240.188 40.2813 241.031 41.4063 241.031 42.1562C241.219 42.7188 241.688 43.1875 242.438 43.5625L242.719 44.6875ZM266.906 178.844C267.281 179.781 267.281 180.812 266.906 181.938C266.531 182.875 266.344 183.812 266.344 184.75C265.031 186.25 263.812 187.188 262.688 187.562C261.75 187.938 261 188.5 260.438 189.25C258.562 189.438 256.688 189.531 254.812 189.531C253.125 189.531 251.344 189.531 249.469 189.531C246.844 189.719 244.781 189.625 243.281 189.25C241.781 188.688 240.281 188.875 238.781 189.812C236.906 189.812 235.594 189.906 234.844 190.094C234.281 190.094 233.719 190.281 233.156 190.656C232.406 190.281 231.75 190 231.188 189.812C230.625 189.438 229.969 189.25 229.219 189.25C228.656 189.062 228.094 189.062 227.531 189.25C227.156 189.438 226.688 189.438 226.125 189.25C225.562 189.062 224.531 188.5 223.031 187.562C221.719 186.625 220.875 186.156 220.5 186.156C220.312 185.219 219.938 184.469 219.375 183.906C218.812 183.156 218.344 182.406 217.969 181.656C217.781 180.906 217.781 180.062 217.969 179.125C218.156 178.188 219 176.969 220.5 175.469C222.562 175.281 223.688 175.188 223.875 175.188C224.25 175.188 224.625 175.094 225 174.906C226.312 174.156 227.25 173.688 227.812 173.5C228.375 173.312 229.406 173.406 230.906 173.781C231.844 171.344 231.656 168.906 230.344 166.469C230.344 166.281 230.344 165.625 230.344 164.5C230.531 163.375 230.625 162.156 230.625 160.844C230.812 159.531 230.906 158.312 230.906 157.188C231.094 156.062 231.188 155.406 231.188 155.219C231 154.656 230.719 154.188 230.344 153.812C230.156 153.25 229.969 152.688 229.781 152.125C229.781 152.125 229.688 151.656 229.5 150.719C229.5 149.594 229.5 148.375 229.5 147.062C229.5 145.75 229.406 144.531 229.219 143.406C229.219 142.281 229.219 141.625 229.219 141.438C229.406 140.5 229.406 139.938 229.219 139.75C229.031 139.375 228.844 139 228.656 138.625C228.469 137.125 228.375 135.531 228.375 133.844C228.562 132.156 228.656 130.562 228.656 129.062C228.844 128.312 228.938 127.562 228.938 126.812C228.938 126.062 228.75 125.312 228.375 124.562C229.125 122.688 229.312 120.906 228.938 119.219C228.562 117.344 228.188 115.562 227.812 113.875C228 112.375 228.188 111.438 228.375 111.062C228.562 110.688 228.562 110.312 228.375 109.938C228 108.25 227.812 107.219 227.812 106.844C228 106.281 228.094 105.719 228.094 105.156C228.094 103.844 228 102.531 227.812 101.219C227.812 99.7188 227.812 98.4062 227.812 97.2812C227.812 96.7188 227.906 96.25 228.094 95.875C228.281 95.3125 228.375 94.75 228.375 94.1875C228.188 92.5 228.188 91.4688 228.375 91.0938C228.562 90.7188 228.562 90.3438 228.375 89.9688C226.312 88.4688 224.344 88.375 222.469 89.6875C220.594 90.8125 218.625 91 216.562 90.25C215.625 89.875 214.875 89.5 214.312 89.125C213.75 88.75 213 88.4688 212.062 88.2812C211.125 86.9688 210.375 86.4062 209.812 86.5938C209.438 86.5938 209.062 86.5938 208.688 86.5938C208.312 85.2812 208.031 84.5312 207.844 84.3438C207.844 83.9688 207.562 83.9688 207 84.3438C207.375 83.4062 207.562 82.5625 207.562 81.8125C207.562 80.875 207.75 80.0312 208.125 79.2812C209.062 78.7188 210 78.25 210.938 77.875C211.875 77.3125 212.719 76.5625 213.469 75.625C216.469 76.1875 219.281 75.3438 221.906 73.0938C223.406 73.8438 224.344 74.125 224.719 73.9375C225.094 73.5625 226.031 73 227.531 72.25C229.031 72.625 230.438 72.5312 231.75 71.9688C233.25 71.2188 234.844 71.2188 236.531 71.9688C238.594 71.5938 239.906 71.6875 240.469 72.25C241.031 72.8125 241.781 73.2812 242.719 73.6562C243.656 75.9062 243.75 78.25 243 80.6875C242.438 82.9375 242.25 85.1875 242.438 87.4375C242.625 89.125 242.812 90.4375 243 91.375C243.375 92.3125 243.656 93.4375 243.844 94.75C244.219 96.8125 244.219 99.4375 243.844 102.625C243.469 105.812 243.469 108.156 243.844 109.656C244.031 110.219 244.219 110.781 244.406 111.344C244.781 111.719 245.062 112.188 245.25 112.75C245.25 113.875 245.062 115 244.688 116.125C244.312 117.25 244.125 118.375 244.125 119.5C244.125 120.812 244.312 122.125 244.688 123.438C245.25 124.562 245.531 125.781 245.531 127.094C244.969 128.781 244.688 129.906 244.688 130.469C244.875 130.844 244.875 131.219 244.688 131.594C244.125 134.219 244.125 136.375 244.688 138.062C245.25 139.75 245.719 141.344 246.094 142.844C246.281 143.781 246.281 144.719 246.094 145.656C246.094 146.406 246.469 147.156 247.219 147.906C246.656 149.406 246.469 150.906 246.656 152.406C247.031 153.719 247.031 155.125 246.656 156.625C247.031 157.375 247.5 158.219 248.062 159.156C248.812 160.094 248.719 161.031 247.781 161.969C248.906 164.781 249.188 166.938 248.625 168.438C248.25 169.75 248.062 171.156 248.062 172.656C249.375 173.219 250.688 173.406 252 173.219C253.5 173.031 254.906 173.312 256.219 174.062C258.656 174.062 260.25 174.156 261 174.344C261.75 174.531 262.594 174.719 263.531 174.906C263.906 175.844 264.469 176.5 265.219 176.875C265.969 177.25 266.531 177.906 266.906 178.844ZM328.5 184.469C327.938 185.031 327 185.594 325.688 186.156C324.562 186.719 323.25 187.281 321.75 187.844C320.25 188.406 318.75 188.875 317.25 189.25C315.938 189.625 315 189.812 314.438 189.812C313.688 189.812 312.938 189.719 312.188 189.531C311.625 189.156 310.875 188.969 309.938 188.969C307.875 188.594 305.719 188.406 303.469 188.406C301.219 188.219 299.062 187.938 297 187.562C294.75 187.188 291.844 187.281 288.281 187.844C284.719 188.219 282.188 188.219 280.688 187.844C279.938 187.469 279.281 186.906 278.719 186.156C278.156 185.406 277.594 184.75 277.031 184.188C275.531 182.312 275.156 180.531 275.906 178.844C276.844 176.969 277.969 175.281 279.281 173.781C280.219 173.781 280.969 173.594 281.531 173.219C282.281 172.844 283.125 172.656 284.062 172.656C286.875 171.906 289.406 171.531 291.656 171.531C293.906 171.344 295.781 171.25 297.281 171.25C298.219 170.312 298.594 169.375 298.406 168.438C298.219 167.312 298.125 166.188 298.125 165.062C298.125 164.5 298.125 163.938 298.125 163.375C298.312 162.812 298.406 162.156 298.406 161.406C297.844 158.969 297.656 157.375 297.844 156.625C298.031 155.875 298.125 155.031 298.125 154.094C298.125 153.344 297.938 152.688 297.562 152.125C297.375 151.375 297.281 150.625 297.281 149.875C297.469 148.938 297.656 148.094 297.844 147.344C298.219 146.406 298.406 145.469 298.406 144.531C298.594 142.844 298.594 141.719 298.406 141.156C298.406 140.594 298.406 139.938 298.406 139.188C298.406 137.125 298.5 135.906 298.688 135.531C298.875 134.969 298.969 134.5 298.969 134.125C299.344 132.625 299.438 131.125 299.25 129.625C299.25 127.938 299.344 126.344 299.531 124.844C299.531 123.531 299.625 122.219 299.812 120.906C300 119.594 300.094 118.281 300.094 116.969C300.094 115.469 300 114.156 299.812 113.031C299.812 111.719 299.906 110.312 300.094 108.812C300.094 108.25 300.188 107.594 300.375 106.844C300.75 106.094 300.844 105.438 300.656 104.875C300.469 102.625 300.562 100.75 300.938 99.25C301.5 97.5625 301.688 95.9688 301.5 94.4688L301.781 91.0938C301.969 90.3438 302.156 89.2188 302.344 87.7188C302.531 86.0312 302.531 84.7188 302.344 83.7812C302.156 82.2812 302.156 81.4375 302.344 81.25C302.531 80.875 302.625 80.5 302.625 80.125C302.812 78.0625 302.906 76.4688 302.906 75.3438C303.094 74.0312 303 72.9062 302.625 71.9688C302.812 71.4062 303 70.9375 303.188 70.5625C303.375 70 303.562 69.4375 303.75 68.875C303.938 67.75 304.125 65.6875 304.312 62.6875C304.5 59.5 304.688 56.2188 304.875 52.8438C305.062 49.2813 305.156 46 305.156 43C305.156 40 305.062 37.9375 304.875 36.8125C304.688 36.0625 304.312 35.4062 303.75 34.8438C303.375 34.0938 303 33.3437 302.625 32.5938C301.5 32.2187 299.906 32.3125 297.844 32.875C295.781 33.25 293.625 33.7188 291.375 34.2812C289.125 34.8438 286.969 35.3125 284.906 35.6875C283.031 36.0625 281.531 36.0625 280.406 35.6875C279.844 35.3125 279.469 35.0312 279.281 34.8438C279.094 34.4687 278.812 34 278.438 33.4375C277.5 32.5 276.844 31.8438 276.469 31.4688C276.281 30.9062 276.844 30.0625 278.156 28.9375C277.969 28.375 277.781 27.9063 277.594 27.5312C277.406 26.9688 277.5 26.4062 277.875 25.8438C278.812 24.9062 279.656 24.0625 280.406 23.3125C281.344 22.5625 282.562 22 284.062 21.625C284.625 21.4375 285.188 21.4375 285.75 21.625C286.5 21.625 287.156 21.625 287.719 21.625C288.844 21.4375 289.875 21.1563 290.812 20.7812C291.938 20.2188 293.062 19.8437 294.188 19.6562C294.75 19.4688 295.312 19.4688 295.875 19.6562C296.438 19.8437 296.906 19.8437 297.281 19.6562C298.219 19.2812 298.969 18.9063 299.531 18.5312C300.281 17.9688 301.125 17.6875 302.062 17.6875C303 17.5 303.844 17.5 304.594 17.6875C305.531 17.875 306.469 17.9688 307.406 17.9688C308.719 17.7813 310.031 17.5 311.344 17.125C312.844 16.5625 314.344 16.4687 315.844 16.8438C316.219 17.0312 316.781 17.5937 317.531 18.5312C318.469 19.2812 319.219 19.8437 319.781 20.2188C319.594 21.3438 319.594 22.5625 319.781 23.875C320.156 25 320.25 26.125 320.062 27.25C320.062 27.8125 319.969 28.375 319.781 28.9375C319.594 29.3125 319.5 29.7812 319.5 30.3438C319.5 30.9062 319.594 31.4688 319.781 32.0312C319.969 32.4063 320.062 32.875 320.062 33.4375C320.25 34.75 320.156 36.0625 319.781 37.375C319.594 38.5 319.5 39.625 319.5 40.75C319.312 41.5 319.312 42.1562 319.5 42.7188C319.688 43.2812 319.781 43.9375 319.781 44.6875C319.781 45.25 319.688 45.8125 319.5 46.375C319.312 46.9375 319.312 47.5938 319.5 48.3438C319.5 48.9062 319.594 49.4688 319.781 50.0312C319.969 50.4063 320.062 50.875 320.062 51.4375C320.062 52.375 320.062 53.875 320.062 55.9375C320.062 58 319.969 60.25 319.781 62.6875C319.781 65.125 319.594 67.375 319.219 69.4375C319.031 71.5 318.844 72.9062 318.656 73.6562C319.406 75.1562 319.594 76.1875 319.219 76.75C318.844 77.3125 318.75 77.6875 318.938 77.875C318.938 78.4375 318.938 79.75 318.938 81.8125C318.938 83.875 318.844 86.0312 318.656 88.2812C318.656 90.5312 318.562 92.5938 318.375 94.4688C318.188 96.3438 318 97.4688 317.812 97.8438C316.875 101.969 316.594 105.438 316.969 108.25C317.531 110.875 317.531 113.125 316.969 115C316.781 115.375 316.688 116.125 316.688 117.25C316.688 118.188 316.688 118.844 316.688 119.219C316.688 120.156 316.781 121 316.969 121.75C317.156 122.5 317.062 123.344 316.688 124.281C316.312 125.219 316.219 126.25 316.406 127.375C316.781 128.5 316.875 129.531 316.688 130.469C316.688 131.219 316.594 131.969 316.406 132.719C316.219 133.281 316.125 133.844 316.125 134.406C315.75 136.844 315.562 139.188 315.562 141.438C315.75 143.688 315.844 145.938 315.844 148.188C315.844 148.938 315.844 149.688 315.844 150.438C315.844 151.188 315.656 151.844 315.281 152.406C316.594 155.969 317.062 159.344 316.688 162.531C316.5 165.719 316.406 169.094 316.406 172.656C317.531 173.406 318.75 173.781 320.062 173.781C321.375 173.781 322.594 174.062 323.719 174.625L325.969 176.594C327.281 178.844 328.031 180.531 328.219 181.656C328.406 182.594 328.5 183.531 328.5 184.469ZM395.719 184.469C395.156 185.031 394.219 185.594 392.906 186.156C391.781 186.719 390.469 187.281 388.969 187.844C387.469 188.406 385.969 188.875 384.469 189.25C383.156 189.625 382.219 189.812 381.656 189.812C380.906 189.812 380.156 189.719 379.406 189.531C378.844 189.156 378.094 188.969 377.156 188.969C375.094 188.594 372.938 188.406 370.688 188.406C368.438 188.219 366.281 187.938 364.219 187.562C361.969 187.188 359.062 187.281 355.5 187.844C351.938 188.219 349.406 188.219 347.906 187.844C347.156 187.469 346.5 186.906 345.938 186.156C345.375 185.406 344.812 184.75 344.25 184.188C342.75 182.312 342.375 180.531 343.125 178.844C344.062 176.969 345.188 175.281 346.5 173.781C347.438 173.781 348.188 173.594 348.75 173.219C349.5 172.844 350.344 172.656 351.281 172.656C354.094 171.906 356.625 171.531 358.875 171.531C361.125 171.344 363 171.25 364.5 171.25C365.438 170.312 365.812 169.375 365.625 168.438C365.438 167.312 365.344 166.188 365.344 165.062C365.344 164.5 365.344 163.938 365.344 163.375C365.531 162.812 365.625 162.156 365.625 161.406C365.062 158.969 364.875 157.375 365.062 156.625C365.25 155.875 365.344 155.031 365.344 154.094C365.344 153.344 365.156 152.688 364.781 152.125C364.594 151.375 364.5 150.625 364.5 149.875C364.688 148.938 364.875 148.094 365.062 147.344C365.438 146.406 365.625 145.469 365.625 144.531C365.812 142.844 365.812 141.719 365.625 141.156C365.625 140.594 365.625 139.938 365.625 139.188C365.625 137.125 365.719 135.906 365.906 135.531C366.094 134.969 366.188 134.5 366.188 134.125C366.562 132.625 366.656 131.125 366.469 129.625C366.469 127.938 366.562 126.344 366.75 124.844C366.75 123.531 366.844 122.219 367.031 120.906C367.219 119.594 367.312 118.281 367.312 116.969C367.312 115.469 367.219 114.156 367.031 113.031C367.031 111.719 367.125 110.312 367.312 108.812C367.312 108.25 367.406 107.594 367.594 106.844C367.969 106.094 368.062 105.438 367.875 104.875C367.688 102.625 367.781 100.75 368.156 99.25C368.719 97.5625 368.906 95.9688 368.719 94.4688L369 91.0938C369.188 90.3438 369.375 89.2188 369.562 87.7188C369.75 86.0312 369.75 84.7188 369.562 83.7812C369.375 82.2812 369.375 81.4375 369.562 81.25C369.75 80.875 369.844 80.5 369.844 80.125C370.031 78.0625 370.125 76.4688 370.125 75.3438C370.312 74.0312 370.219 72.9062 369.844 71.9688C370.031 71.4062 370.219 70.9375 370.406 70.5625C370.594 70 370.781 69.4375 370.969 68.875C371.156 67.75 371.344 65.6875 371.531 62.6875C371.719 59.5 371.906 56.2188 372.094 52.8438C372.281 49.2813 372.375 46 372.375 43C372.375 40 372.281 37.9375 372.094 36.8125C371.906 36.0625 371.531 35.4062 370.969 34.8438C370.594 34.0938 370.219 33.3437 369.844 32.5938C368.719 32.2187 367.125 32.3125 365.062 32.875C363 33.25 360.844 33.7188 358.594 34.2812C356.344 34.8438 354.188 35.3125 352.125 35.6875C350.25 36.0625 348.75 36.0625 347.625 35.6875C347.062 35.3125 346.688 35.0312 346.5 34.8438C346.312 34.4687 346.031 34 345.656 33.4375C344.719 32.5 344.062 31.8438 343.688 31.4688C343.5 30.9062 344.062 30.0625 345.375 28.9375C345.188 28.375 345 27.9063 344.812 27.5312C344.625 26.9688 344.719 26.4062 345.094 25.8438C346.031 24.9062 346.875 24.0625 347.625 23.3125C348.562 22.5625 349.781 22 351.281 21.625C351.844 21.4375 352.406 21.4375 352.969 21.625C353.719 21.625 354.375 21.625 354.938 21.625C356.062 21.4375 357.094 21.1563 358.031 20.7812C359.156 20.2188 360.281 19.8437 361.406 19.6562C361.969 19.4688 362.531 19.4688 363.094 19.6562C363.656 19.8437 364.125 19.8437 364.5 19.6562C365.438 19.2812 366.188 18.9063 366.75 18.5312C367.5 17.9688 368.344 17.6875 369.281 17.6875C370.219 17.5 371.062 17.5 371.812 17.6875C372.75 17.875 373.688 17.9688 374.625 17.9688C375.938 17.7813 377.25 17.5 378.562 17.125C380.062 16.5625 381.562 16.4687 383.062 16.8438C383.438 17.0312 384 17.5937 384.75 18.5312C385.688 19.2812 386.438 19.8437 387 20.2188C386.812 21.3438 386.812 22.5625 387 23.875C387.375 25 387.469 26.125 387.281 27.25C387.281 27.8125 387.188 28.375 387 28.9375C386.812 29.3125 386.719 29.7812 386.719 30.3438C386.719 30.9062 386.812 31.4688 387 32.0312C387.188 32.4063 387.281 32.875 387.281 33.4375C387.469 34.75 387.375 36.0625 387 37.375C386.812 38.5 386.719 39.625 386.719 40.75C386.531 41.5 386.531 42.1562 386.719 42.7188C386.906 43.2812 387 43.9375 387 44.6875C387 45.25 386.906 45.8125 386.719 46.375C386.531 46.9375 386.531 47.5938 386.719 48.3438C386.719 48.9062 386.812 49.4688 387 50.0312C387.188 50.4063 387.281 50.875 387.281 51.4375C387.281 52.375 387.281 53.875 387.281 55.9375C387.281 58 387.188 60.25 387 62.6875C387 65.125 386.812 67.375 386.438 69.4375C386.25 71.5 386.062 72.9062 385.875 73.6562C386.625 75.1562 386.812 76.1875 386.438 76.75C386.062 77.3125 385.969 77.6875 386.156 77.875C386.156 78.4375 386.156 79.75 386.156 81.8125C386.156 83.875 386.062 86.0312 385.875 88.2812C385.875 90.5312 385.781 92.5938 385.594 94.4688C385.406 96.3438 385.219 97.4688 385.031 97.8438C384.094 101.969 383.812 105.438 384.188 108.25C384.75 110.875 384.75 113.125 384.188 115C384 115.375 383.906 116.125 383.906 117.25C383.906 118.188 383.906 118.844 383.906 119.219C383.906 120.156 384 121 384.188 121.75C384.375 122.5 384.281 123.344 383.906 124.281C383.531 125.219 383.438 126.25 383.625 127.375C384 128.5 384.094 129.531 383.906 130.469C383.906 131.219 383.812 131.969 383.625 132.719C383.438 133.281 383.344 133.844 383.344 134.406C382.969 136.844 382.781 139.188 382.781 141.438C382.969 143.688 383.062 145.938 383.062 148.188C383.062 148.938 383.062 149.688 383.062 150.438C383.062 151.188 382.875 151.844 382.5 152.406C383.812 155.969 384.281 159.344 383.906 162.531C383.719 165.719 383.625 169.094 383.625 172.656C384.75 173.406 385.969 173.781 387.281 173.781C388.594 173.781 389.812 174.062 390.938 174.625L393.188 176.594C394.5 178.844 395.25 180.531 395.438 181.656C395.625 182.594 395.719 183.531 395.719 184.469ZM560.531 79.2812C560.906 79.8438 561.094 80.7812 561.094 82.0938C561.094 83.4062 560.719 84.25 559.969 84.625C560.344 85.5625 560.25 86.3125 559.688 86.875C559.125 87.4375 558.656 88.1875 558.281 89.125C557.344 88.75 556.688 88.8438 556.312 89.4062C556.125 89.9688 555.656 90.3438 554.906 90.5312C554.531 90.3438 554.062 90.1562 553.5 89.9688C552.938 89.7812 552.469 89.6875 552.094 89.6875C550.219 90.25 549.094 90.5312 548.719 90.5312C548.344 90.3438 547.875 90.625 547.312 91.375C545.062 90.625 543.656 90.3438 543.094 90.5312C542.719 90.7188 542.25 90.9062 541.688 91.0938C541.688 92.2188 541.594 93.4375 541.406 94.75C541.219 95.875 541.125 97.0938 541.125 98.4062C541.312 100.281 541.219 101.5 540.844 102.062C540.656 102.438 540.75 102.812 541.125 103.188C540 104.125 539.625 105.438 540 107.125C540.375 108.625 540.188 109.938 539.438 111.062C539.625 113.875 539.719 115.938 539.719 117.25C539.906 118.375 539.719 119.406 539.156 120.344C539.719 122.406 539.906 123.438 539.719 123.438C539.719 123.438 539.625 123.625 539.438 124C539.438 124.375 539.531 124.938 539.719 125.688C540.094 126.25 540.281 126.812 540.281 127.375C540.094 128.688 540 129.531 540 129.906C540 130.094 539.812 130.656 539.438 131.594C539.25 132.906 539.156 133.75 539.156 134.125C539.156 134.5 538.969 134.875 538.594 135.25C538.594 136.562 538.5 137.781 538.312 138.906C538.312 140.031 538.312 141.156 538.312 142.281C537.75 142.656 537.375 143.125 537.188 143.688C537.188 144.25 537 144.719 536.625 145.094C537 146.031 537.375 146.969 537.75 147.906C538.312 148.844 538.594 149.875 538.594 151C538.594 151.938 538.406 152.875 538.031 153.812C537.844 154.75 537.938 155.688 538.312 156.625C538.5 157.375 538.781 158.312 539.156 159.438C539.531 160.375 539.812 161.219 540 161.969C540.188 164.031 540 165.344 539.438 165.906C539.062 166.469 538.875 167.125 538.875 167.875C538.875 168.812 538.969 169.656 539.156 170.406C539.531 171.156 539.438 171.906 538.875 172.656C539.438 174.156 539.625 175 539.438 175.188C539.25 175.375 539.156 175.656 539.156 176.031C539.156 176.594 539.156 177.156 539.156 177.719C539.344 178.281 539.438 178.844 539.438 179.406L539.156 182.5C539.156 183.25 539.062 184.656 538.875 186.719C538.688 188.781 538.688 190 538.875 190.375C538.125 190.75 537.75 191.5 537.75 192.625C537.938 193.562 538.125 194.312 538.312 194.875C537.562 195.625 537.188 196.469 537.188 197.406C537.375 198.344 537.281 199.281 536.906 200.219C536.531 201.156 536.156 201.906 535.781 202.469C535.406 203.031 535.031 203.781 534.656 204.719C534.844 206.406 534.75 207.438 534.375 207.812C534.188 208.188 534 208.562 533.812 208.938C533.625 209.875 533.625 210.719 533.812 211.469C534.188 212.219 533.812 213.156 532.688 214.281C532.312 215.969 532.312 217.281 532.688 218.219C532.125 218.594 531.656 218.875 531.281 219.062C531.094 219.438 530.812 219.812 530.438 220.188C530.812 221.5 530.625 222.531 529.875 223.281C529.312 224.219 528.844 225.25 528.469 226.375C528.094 228.25 527.719 229.562 527.344 230.312C527.156 231.062 526.781 231.531 526.219 231.719C526.406 232.469 526.125 232.938 525.375 233.125C524.625 233.5 524.25 234.062 524.25 234.812C523.688 235.375 523.031 235.75 522.281 235.938C521.719 236.125 521.438 236.688 521.438 237.625C519.75 238.75 518.906 239.5 518.906 239.875C518.906 240.25 518.719 240.625 518.344 241C517.406 241.562 516.562 242.031 515.812 242.406C515.062 242.781 514.5 243.531 514.125 244.656C513.562 244.656 513.094 244.844 512.719 245.219C512.344 245.594 511.875 245.688 511.312 245.5C509.812 246.438 508.781 247 508.219 247.188C507.656 247.375 507.188 247.75 506.812 248.312C506.25 248.312 505.219 248.406 503.719 248.594C502.219 248.969 501.375 249.531 501.188 250.281C498.375 251.031 496.219 251.312 494.719 251.125C493.406 250.938 492.281 251.312 491.344 252.25C490.781 252.25 490.219 252.344 489.656 252.531C489.281 252.719 488.906 252.531 488.531 251.969C487.031 253.281 485.062 253.562 482.625 252.812C480.375 253.562 479.156 253.75 478.969 253.375C478.969 253 478.688 252.719 478.125 252.531C477 252.906 476.062 252.812 475.312 252.25C474.562 251.688 473.719 251.406 472.781 251.406C470.906 251.594 469.688 251.5 469.125 251.125C468.562 250.938 467.812 251.031 466.875 251.406C464.812 250.469 463.594 249.812 463.219 249.438C463.031 249.25 462.75 248.969 462.375 248.594C461.812 248.219 461.156 248.031 460.406 248.031C459.844 248.219 459.562 247.938 459.562 247.188C457.688 246.438 456.375 245.781 455.625 245.219C455.062 244.844 454.594 244.281 454.219 243.531C452.531 242.594 451.688 241.844 451.688 241.281C451.125 240.906 450.656 240.531 450.281 240.156C449.906 239.781 449.719 239.125 449.719 238.188C448.781 237.812 448.031 237.25 447.469 236.5C446.906 235.75 446.156 235.094 445.219 234.531C445.031 233.406 444.188 232.469 442.688 231.719C442.125 230.406 441.281 229.281 440.156 228.344C440.156 225.906 439.312 223.844 437.625 222.156C437.438 221.031 437.344 219.719 437.344 218.219C437.531 216.906 437.156 215.781 436.219 214.844C436.406 214.094 436.594 213.156 436.781 212.031C436.969 210.906 437.062 209.969 437.062 209.219C436.5 206.969 436.312 205.562 436.5 205C436.875 204.25 437.062 203.5 437.062 202.75C438.375 201.812 439.125 201.25 439.312 201.062C439.688 200.688 440.812 200.688 442.688 201.062C444.75 201.438 445.781 201.719 445.781 201.906C445.969 202.094 446.25 202.188 446.625 202.188L450 203.875C450.938 205.938 451.406 207.344 451.406 208.094C451.406 209.031 451.781 209.688 452.531 210.062C452.344 211.188 452.531 212.219 453.094 213.156C453.844 214.094 454.031 215.031 453.656 215.969C454.219 218.031 454.969 219.906 455.906 221.594C456.844 223.469 457.5 224.781 457.875 225.531C459.375 227.219 460.312 228.156 460.688 228.344C461.062 228.719 461.25 229.281 461.25 230.031C461.625 230.594 462.094 231.062 462.656 231.438C463.406 231.812 463.969 232.188 464.344 232.562C464.531 232.562 465.094 232.75 466.031 233.125C466.969 233.5 467.906 233.875 468.844 234.25C469.781 234.812 470.625 235.281 471.375 235.656C472.125 236.031 472.5 236.312 472.5 236.5C473.25 236.125 474.656 236.031 476.719 236.219C478.969 236.594 480.469 236.969 481.219 237.344C482.156 236.406 482.812 235.938 483.188 235.938C483.562 236.125 483.656 236.031 483.469 235.656C484.781 236.219 486.188 236.312 487.688 235.938C489.375 235.75 490.688 235.188 491.625 234.25C493.688 233.875 494.719 233.688 494.719 233.688C494.906 233.875 495.094 233.969 495.281 233.969C496.031 233.594 496.781 233.031 497.531 232.281C499.406 231.906 500.531 231.344 500.906 230.594C502.219 230.406 503.344 229.844 504.281 228.906C505.406 228.156 506.625 227.594 507.938 227.219C508.688 225.531 509.625 224.125 510.75 223C512.062 221.875 512.906 220.188 513.281 217.938C514.031 215.875 514.875 214.188 515.812 212.875C516.562 211 517.031 209.594 517.219 208.656C517.406 207.906 517.781 207.344 518.344 206.969C518.156 205.094 518.062 203.875 518.062 203.312C518.25 202.562 518.156 201.906 517.781 201.344C518.531 199.844 519 199 519.188 198.812C519.375 198.625 519.469 198.344 519.469 197.969C519.844 195.719 520.219 194.125 520.594 193.188C520.969 192.25 521.25 191.312 521.438 190.375C521.812 188.875 522 187.562 522 186.438C522 185.125 522.188 183.812 522.562 182.5C523.125 181.188 523.125 179.875 522.562 178.562C522.188 177.062 522.188 175.562 522.562 174.062C521.812 172 521.531 170.875 521.719 170.688C522.094 170.312 522.375 169.938 522.562 169.562C521.812 168.812 521.062 168.812 520.312 169.562C519.75 170.312 519.375 170.781 519.188 170.969C517.875 171.719 517.031 172.375 516.656 172.938C516.469 173.312 516.188 173.688 515.812 174.062C514.688 174.438 513.938 174.812 513.562 175.188C513.375 175.562 513 175.562 512.438 175.188C510.562 176.312 509.156 177.25 508.219 178C507.281 178.75 506.156 179.219 504.844 179.406C502.406 179.594 500.25 179.875 498.375 180.25C496.688 180.625 495.094 181 493.594 181.375C493.031 181.375 492.469 181.562 491.906 181.938C491.531 182.312 491.062 182.5 490.5 182.5C488.625 181.75 487.125 181.656 486 182.219C484.125 182.594 482.906 182.688 482.344 182.5C481.969 182.125 481.594 181.656 481.219 181.094C479.906 180.906 479.062 180.812 478.688 180.812C478.312 180.625 477.938 180.531 477.562 180.531H471.656L466.594 179.406C465.656 178.656 464.625 178.094 463.5 177.719C462.375 177.344 461.25 176.875 460.125 176.312C459.375 175.938 458.719 175.469 458.156 174.906C457.594 174.344 456.844 173.875 455.906 173.5C454.969 173.125 454.125 172.469 453.375 171.531C452.625 170.406 451.688 169.562 450.562 169C450.188 168.062 449.625 167.312 448.875 166.75C448.312 166.188 447.75 165.438 447.188 164.5C445.5 163 444.375 161.688 443.812 160.562C442.875 158.875 442.031 157.938 441.281 157.75C440.906 157.188 440.719 156.625 440.719 156.062C440.719 155.312 440.25 154.938 439.312 154.938C438.938 154 438.562 152.969 438.188 151.844C437.812 150.531 437.062 149.688 435.938 149.312C435.938 148.938 435.75 148.562 435.375 148.188C435.188 147.625 435.188 147.062 435.375 146.5C434.25 145.938 433.594 145.094 433.406 143.969C433.219 142.844 432.656 141.812 431.719 140.875C431.719 139.188 431.438 137.781 430.875 136.656C430.312 135.531 429.844 134.219 429.469 132.719C429.281 132.156 429.375 131.688 429.75 131.312C430.312 130.938 430.594 130.469 430.594 129.906C430.594 128.969 430.406 127.938 430.031 126.812C429.844 125.688 429.938 124.656 430.312 123.719C430.125 121.281 429.938 119.5 429.75 118.375C429.75 117.25 429.469 116.312 428.906 115.562L429.188 112.188C428.812 110.875 428.625 110.219 428.625 110.219C428.812 110.031 428.906 109.75 428.906 109.375C428.719 107.5 428.719 106.281 428.906 105.719C429.094 105.156 429 104.594 428.625 104.031C428.062 103.656 427.5 103.656 426.938 104.031C426.562 104.219 426.094 104.312 425.531 104.312C425.156 104.312 424.688 104.219 424.125 104.031C423.562 103.844 423.094 103.844 422.719 104.031C422.156 104.031 421.594 104.125 421.031 104.312C420.469 104.5 420 104.688 419.625 104.875C419.25 104.5 418.594 104.5 417.656 104.875C416.906 105.25 416.25 105.438 415.688 105.438C414.75 105.438 413.812 105.25 412.875 104.875C411.938 104.5 411.094 104.5 410.344 104.875L407.531 102.625L405 100.938C403.312 98.875 402.75 97.2812 403.312 96.1562C403.688 94.8438 403.594 93.7188 403.031 92.7812C403.406 92.7812 403.781 92.5938 404.156 92.2188C404.531 91.6562 404.906 91.2812 405.281 91.0938C407.906 89.7812 410.156 89.2188 412.031 89.4062C413.906 89.5938 415.5 89.5 416.812 89.125C417.938 88.5625 418.688 88.375 419.062 88.5625C419.625 88.75 420.094 88.75 420.469 88.5625C421.031 88.5625 421.5 88.4688 421.875 88.2812C422.438 88.0938 422.906 88 423.281 88C423.844 88 424.406 88.0938 424.969 88.2812C425.531 88.4688 426.188 88.5625 426.938 88.5625C428.062 88.75 429.844 88.6562 432.281 88.2812C434.719 87.7188 436.5 87.25 437.625 86.875C438.188 87.0625 438.75 87.3438 439.312 87.7188C439.875 87.9062 440.531 88 441.281 88C442.969 87.625 444.188 87.4375 444.938 87.4375C445.875 87.4375 446.906 87.4375 448.031 87.4375C449.156 87.25 450.188 87.0625 451.125 86.875C452.25 86.6875 453 86.5938 453.375 86.5938C454.125 86.4062 454.781 86.125 455.344 85.75C455.906 85.375 456.656 85.0938 457.594 84.9062C459.844 84.7188 461.438 85.0938 462.375 86.0312C463.5 86.9688 464.812 87.5312 466.312 87.7188C466.688 89.0312 466.969 89.7812 467.156 89.9688C467.344 89.9688 467.531 90.0625 467.719 90.25C467.719 91.5625 467.906 92.4062 468.281 92.7812C468.656 93.1562 468.75 93.5312 468.562 93.9062C467.812 95.9688 467.438 97.1875 467.438 97.5625C467.625 97.75 467.719 98.0312 467.719 98.4062C466.781 99.3438 466.312 99.9062 466.312 100.094C466.312 100.281 466.219 100.469 466.031 100.656C464.531 100.844 463.312 101.594 462.375 102.906C460.875 102.906 459.094 102.906 457.031 102.906C454.969 102.906 453.281 103.281 451.969 104.031C450.844 103.656 449.719 103.562 448.594 103.75C447.469 103.938 446.438 104.219 445.5 104.594C445.125 105.906 445.219 107.219 445.781 108.531C446.344 109.656 446.344 110.781 445.781 111.906C446.531 112.844 447.094 114.25 447.469 116.125C448.031 117.812 447.75 119.125 446.625 120.062C447.375 120.438 447.562 121.375 447.188 122.875C447 124.188 447.281 125.031 448.031 125.406C447.094 126.344 446.812 127.469 447.188 128.781C447.75 130.094 448.125 131.312 448.312 132.438C448.312 133.375 448.219 134.312 448.031 135.25C447.844 136.188 447.938 137.125 448.312 138.062C448.312 138.438 448.5 139 448.875 139.75C449.438 140.5 450 141.344 450.562 142.281C451.125 143.031 451.688 143.688 452.25 144.25C452.812 144.812 453.281 145.094 453.656 145.094C453.656 146.031 453.938 146.875 454.5 147.625C455.25 148.188 455.625 148.938 455.625 149.875C456.188 150.812 456.938 151.469 457.875 151.844L459 154.656C459.75 155.781 460.5 156.438 461.25 156.625C461.25 157.562 461.812 158.5 462.938 159.438C464.062 160.375 465.281 161.219 466.594 161.969C468.094 162.719 469.594 163.281 471.094 163.656C472.594 164.031 473.719 164.125 474.469 163.938C475.406 164.5 476.438 164.781 477.562 164.781C478.875 164.781 480 164.875 480.938 165.062C481.5 164.5 482.344 164.594 483.469 165.344C484.781 165.906 485.906 166 486.844 165.625C488.531 165.438 489.656 165.25 490.219 165.062C490.969 164.688 491.625 164.406 492.188 164.219C494.438 164.031 495.938 163.656 496.688 163.094C497.625 162.531 498.656 162.625 499.781 163.375C501.844 162.438 503.062 161.406 503.438 160.281C504.938 160.469 506.062 160.094 506.812 159.156C507.562 158.219 508.406 157.375 509.344 156.625C510.844 155.5 511.875 154.844 512.438 154.656C513.188 154.281 513.938 153.719 514.688 152.969C515.25 151.469 515.625 150.719 515.812 150.719C516.188 150.719 516.469 150.625 516.656 150.438C517.594 148 517.875 146.406 517.5 145.656C518.438 142.844 518.906 141.25 518.906 140.875C519.094 140.312 519.188 140.031 519.188 140.031C519.375 139.844 519.562 139.656 519.75 139.469C519.938 139.281 520.219 138.812 520.594 138.062C520.406 137.125 520.406 136.094 520.594 134.969C520.969 133.844 520.969 132.812 520.594 131.875C521.531 130.562 521.906 130 521.719 130.188C521.531 130.375 521.625 130 522 129.062C522.75 128.688 522.938 128.125 522.562 127.375C522.188 126.438 522.375 125.781 523.125 125.406C522.562 123.906 522.375 122.125 522.562 120.062C522.938 117.812 523.031 115.938 522.844 114.438C522.844 113.875 522.75 113.406 522.562 113.031C522.375 112.469 522.281 111.906 522.281 111.344C522.281 110.594 522.281 109.75 522.281 108.812C522.281 107.688 522.375 106.75 522.562 106C523.312 104.312 523.594 103.375 523.406 103.188C523.406 103 523.5 102.719 523.688 102.344C524.438 101.594 524.625 99.9062 524.25 97.2812C524.062 94.4688 524.062 92.5 524.25 91.375C522.562 90.625 521.438 90.1562 520.875 89.9688C520.5 89.7812 519.938 89.9688 519.188 90.5312C518.25 90.1562 517.406 90.25 516.656 90.8125C515.906 91.1875 515.062 91.375 514.125 91.375C512.438 91.1875 511.219 91.2812 510.469 91.6562C509.906 92.0312 509.062 91.9375 507.938 91.375C507.188 91.375 506.625 91.1875 506.25 90.8125C505.875 90.4375 505.406 90.3438 504.844 90.5312C504.094 88.6562 502.406 87.25 499.781 86.3125C498.844 84.0625 498.562 82.4688 498.938 81.5312C499.5 80.4062 499.594 79.375 499.219 78.4375C500.906 76.9375 502.031 76.0938 502.594 75.9062C503.156 75.7188 503.812 75.5312 504.562 75.3438C506.062 74.9688 507.938 74.9688 510.188 75.3438C512.625 75.5312 514.781 75.4375 516.656 75.0625C518.531 74.5 519.469 74.3125 519.469 74.5C519.656 74.6875 519.938 74.7812 520.312 74.7812C521.062 74.2188 521.625 74.125 522 74.5C522.375 74.875 522.75 75.0625 523.125 75.0625C524.625 75.0625 525.844 74.7812 526.781 74.2188C529.031 74.2188 530.344 74.125 530.719 73.9375C531.281 73.5625 531.75 73.2812 532.125 73.0938C533.625 73.6562 535.312 73.5625 537.188 72.8125C539.25 72.0625 540.844 72.3438 541.969 73.6562C543.844 72.9062 545.625 73 547.312 73.9375C548.062 73.9375 548.906 73.9375 549.844 73.9375C550.781 73.9375 551.531 73.75 552.094 73.375C553.969 74.3125 555.188 75.0625 555.75 75.625C556.312 76 557.062 76.1875 558 76.1875C558 76.9375 558.281 77.5938 558.844 78.1562C559.594 78.5312 560.156 78.9062 560.531 79.2812Z" fill="white"/>
</svg>
